<?xml version="1.0" encoding="UTF-8"?>
<svg id="Layer_2" data-name="Layer 2" xmlns="http://www.w3.org/2000/svg" xmlns:xlink="http://www.w3.org/1999/xlink" viewBox="0 0 377.71 476.81">
  <defs>
    <style>
      .cls-1 {
        fill: url(#linear-gradient-12);
      }

      .cls-1, .cls-2, .cls-3, .cls-4, .cls-5, .cls-6, .cls-7, .cls-8, .cls-9, .cls-10, .cls-11, .cls-12, .cls-13, .cls-14, .cls-15, .cls-16, .cls-17, .cls-18, .cls-19, .cls-20, .cls-21, .cls-22, .cls-23, .cls-24, .cls-25, .cls-26, .cls-27, .cls-28, .cls-29, .cls-30, .cls-31, .cls-32, .cls-33, .cls-34, .cls-35 {
        stroke-width: 0px;
      }

      .cls-2 {
        fill: url(#linear-gradient-17);
      }

      .cls-3 {
        fill: url(#linear-gradient-19);
      }

      .cls-4 {
        fill: url(#linear-gradient-33);
      }

      .cls-5 {
        fill: url(#linear-gradient);
      }

      .cls-6 {
        fill: url(#linear-gradient-21);
      }

      .cls-7 {
        fill: url(#linear-gradient-6);
      }

      .cls-8 {
        fill: url(#linear-gradient-15);
      }

      .cls-9 {
        fill: url(#linear-gradient-11);
      }

      .cls-10 {
        fill: url(#linear-gradient-5);
      }

      .cls-11 {
        fill: url(#linear-gradient-31);
      }

      .cls-12 {
        fill: url(#linear-gradient-34);
      }

      .cls-13 {
        fill: url(#linear-gradient-13);
      }

      .cls-14 {
        fill: url(#linear-gradient-23);
      }

      .cls-15 {
        fill: url(#linear-gradient-25);
      }

      .cls-16 {
        fill: url(#linear-gradient-16);
      }

      .cls-17 {
        fill: url(#linear-gradient-22);
      }

      .cls-18 {
        fill: url(#linear-gradient-35);
      }

      .cls-19 {
        fill: url(#linear-gradient-32);
      }

      .cls-20 {
        fill: url(#linear-gradient-20);
      }

      .cls-21 {
        fill: url(#linear-gradient-14);
      }

      .cls-22 {
        fill: url(#linear-gradient-2);
      }

      .cls-23 {
        fill: url(#linear-gradient-7);
      }

      .cls-24 {
        fill: url(#linear-gradient-3);
      }

      .cls-25 {
        fill: url(#linear-gradient-9);
      }

      .cls-26 {
        fill: url(#linear-gradient-27);
      }

      .cls-27 {
        fill: url(#linear-gradient-8);
      }

      .cls-28 {
        fill: url(#linear-gradient-24);
      }

      .cls-29 {
        fill: url(#linear-gradient-26);
      }

      .cls-30 {
        fill: url(#linear-gradient-18);
      }

      .cls-31 {
        fill: url(#linear-gradient-30);
      }

      .cls-32 {
        fill: url(#linear-gradient-29);
      }

      .cls-33 {
        fill: url(#linear-gradient-28);
      }

      .cls-34 {
        fill: url(#linear-gradient-10);
      }

      .cls-35 {
        fill: url(#linear-gradient-4);
      }
    </style>
    <linearGradient id="linear-gradient" x1="-8.22" y1="392.33" x2="378.27" y2="392.33" gradientUnits="userSpaceOnUse">
      <stop offset="0" stop-color="#bc8e4b"/>
      <stop offset=".25" stop-color="#f0e79c"/>
      <stop offset=".62" stop-color="#dec17a"/>
      <stop offset=".91" stop-color="#bc8e4b"/>
    </linearGradient>
    <linearGradient id="linear-gradient-2" x1="-8.22" x2="378.27" xlink:href="#linear-gradient"/>
    <linearGradient id="linear-gradient-3" x1="-8.22" x2="378.27" xlink:href="#linear-gradient"/>
    <linearGradient id="linear-gradient-4" x1="-8.22" x2="378.27" xlink:href="#linear-gradient"/>
    <linearGradient id="linear-gradient-5" x1="-8.22" x2="378.27" xlink:href="#linear-gradient"/>
    <linearGradient id="linear-gradient-6" x1="-8.22" x2="378.27" xlink:href="#linear-gradient"/>
    <linearGradient id="linear-gradient-7" x1="15.29" y1="462.44" x2="360.54" y2="462.44" xlink:href="#linear-gradient"/>
    <linearGradient id="linear-gradient-8" x1="15.29" y1="462.44" x2="360.54" y2="462.44" xlink:href="#linear-gradient"/>
    <linearGradient id="linear-gradient-9" x1="15.29" y1="462.44" x2="360.54" y2="462.44" xlink:href="#linear-gradient"/>
    <linearGradient id="linear-gradient-10" x1="15.29" y1="462.44" x2="360.54" y2="462.44" xlink:href="#linear-gradient"/>
    <linearGradient id="linear-gradient-11" x1="15.29" y1="462.44" x2="360.54" y2="462.44" xlink:href="#linear-gradient"/>
    <linearGradient id="linear-gradient-12" x1="15.29" y1="462.44" x2="360.54" y2="462.44" xlink:href="#linear-gradient"/>
    <linearGradient id="linear-gradient-13" x1="15.29" y1="462.44" x2="360.54" y2="462.44" xlink:href="#linear-gradient"/>
    <linearGradient id="linear-gradient-14" x1="15.29" y1="462.44" x2="360.54" y2="462.44" xlink:href="#linear-gradient"/>
    <linearGradient id="linear-gradient-15" x1="42.83" y1="149" x2="335.48" y2="149" xlink:href="#linear-gradient"/>
    <linearGradient id="linear-gradient-16" x1="42.83" y1="214.14" x2="335.48" y2="214.14" xlink:href="#linear-gradient"/>
    <linearGradient id="linear-gradient-17" x1="42.83" y1="214.14" x2="335.48" y2="214.14" xlink:href="#linear-gradient"/>
    <linearGradient id="linear-gradient-18" x1="189.18" y1="121.93" x2="189.74" y2="101.51" gradientUnits="userSpaceOnUse">
      <stop offset=".09" stop-color="#bc8e4b"/>
      <stop offset=".38" stop-color="#dec17a"/>
      <stop offset=".75" stop-color="#f0e79c"/>
      <stop offset="1" stop-color="#bc8e4b"/>
    </linearGradient>
    <linearGradient id="linear-gradient-19" x1="156.48" y1="138.02" x2="138.46" y2="154.02" xlink:href="#linear-gradient"/>
    <linearGradient id="linear-gradient-20" x1="104.13" y1="104.25" x2="85.74" y2="120.07" xlink:href="#linear-gradient"/>
    <linearGradient id="linear-gradient-21" x1="239.34" y1="148.91" x2="219.11" y2="142.66" xlink:href="#linear-gradient"/>
    <linearGradient id="linear-gradient-22" x1="294.21" y1="118.04" x2="272.88" y2="105.91" xlink:href="#linear-gradient"/>
    <linearGradient id="linear-gradient-23" x1="246.11" y1="75.36" x2="245.74" y2="50.9" xlink:href="#linear-gradient"/>
    <linearGradient id="linear-gradient-24" x1="144.73" y1="66.87" x2="117.14" y2="58.41" xlink:href="#linear-gradient"/>
    <linearGradient id="linear-gradient-25" x1="203.81" y1="44.52" x2="172.18" y2="45.07" gradientUnits="userSpaceOnUse">
      <stop offset="0" stop-color="#bc8e4b"/>
      <stop offset=".48" stop-color="#f0e79c"/>
      <stop offset=".69" stop-color="#dec17a"/>
      <stop offset=".91" stop-color="#bc8e4b"/>
    </linearGradient>
    <linearGradient id="linear-gradient-26" x1="42.83" y1="250.09" x2="335.48" y2="250.09" xlink:href="#linear-gradient"/>
    <linearGradient id="linear-gradient-27" x1="42.83" y1="183.05" x2="335.48" y2="183.05" xlink:href="#linear-gradient"/>
    <linearGradient id="linear-gradient-28" x1="42.83" y1="100.85" x2="335.48" y2="100.85" xlink:href="#linear-gradient"/>
    <linearGradient id="linear-gradient-29" x1="42.83" y1="84.87" x2="335.48" y2="84.87" xlink:href="#linear-gradient"/>
    <linearGradient id="linear-gradient-30" x1="42.83" y1="176.78" x2="335.48" y2="176.78" xlink:href="#linear-gradient"/>
    <linearGradient id="linear-gradient-31" x1="42.83" y1="136.93" x2="335.48" y2="136.93" xlink:href="#linear-gradient"/>
    <linearGradient id="linear-gradient-32" x1="42.83" y1="67.74" x2="335.48" y2="67.74" xlink:href="#linear-gradient"/>
    <linearGradient id="linear-gradient-33" x1="42.83" y1="138.57" x2="335.48" y2="138.57" xlink:href="#linear-gradient"/>
    <linearGradient id="linear-gradient-34" x1="42.83" y1="54.11" x2="335.48" y2="54.11" xlink:href="#linear-gradient"/>
    <linearGradient id="linear-gradient-35" x1="42.83" y1="103.12" x2="335.48" y2="103.12" xlink:href="#linear-gradient"/>
  </defs>
  <g id="Layer_1-2" data-name="Layer 1">
    <g>
      <g>
        <path class="cls-5" d="m10.19,386.7h43.81v-36.18h10.19v83.62h-10.19v-38.25H10.19v38.25H0v-83.62h10.19v36.18Z"/>
        <path class="cls-22" d="m76.99,434.14l34.06-83.62h8.81l34.06,83.62h-11.06l-9.99-25.18h-34.96l-9.98,25.18h-10.94Zm38.37-70.62c-3.73,10.41-7.29,19.87-10.69,28.37l-3.13,7.87h27.71l-3.17-7.87c-3.43-8.66-6.92-18.12-10.48-28.38h-.25Z"/>
        <path class="cls-24" d="m189.85,434.14h-10.19v-74.43h-27.93v-9.19h66.06v9.19h-27.93v74.43Z"/>
        <path class="cls-35" d="m230.91,434.14v-83.62h10.19v83.62h-10.19Z"/>
        <path class="cls-10" d="m306.65,434.14h-4.69l-21.06-49.93c-2.92-6.87-5.83-14.35-8.75-22.44h-.5c.58,11.62.88,22.27.88,31.93v40.43h-10.19v-83.62h14.69l19.69,47.31c2.25,5.42,4.73,11.94,7.44,19.56h.31c3-8.46,5.48-14.98,7.44-19.56l19.69-47.31h14.69v83.62h-10.19v-40.43c0-9.46.29-20.1.88-31.93h-.5c-3.08,8.54-6,16.02-8.75,22.44l-21.06,49.93Z"/>
        <path class="cls-7" d="m367.52,434.14v-83.62h10.19v83.62h-10.19Z"/>
      </g>
      <g>
        <path class="cls-23" d="m24.9,464.82v11.48h-3.38v-27.71h7.18c1.21,0,2.24.05,3.09.13.85.09,1.62.23,2.33.42,1.93.53,3.41,1.42,4.43,2.68,1.02,1.26,1.53,2.84,1.53,4.73,0,1.12-.18,2.12-.54,3-.36.88-.86,1.65-1.51,2.3-.65.65-1.43,1.18-2.33,1.59s-1.91.72-3.01.91v.08l8.2,11.85h-3.38l-8.53-11.48h-4.08Zm0-13.19v10.15h3.33c1.04,0,1.92-.03,2.65-.1.73-.07,1.39-.19,1.97-.37,1.17-.36,2.08-.93,2.71-1.72.64-.79.95-1.82.95-3.09-.01-1.19-.32-2.14-.91-2.87s-1.42-1.25-2.47-1.56c-.5-.15-1.09-.26-1.78-.33-.69-.07-1.57-.1-2.63-.1h-3.83Z"/>
        <path class="cls-27" d="m71.21,473.25h14.21v3.04h-17.59v-27.71h16.82v3.04h-13.44v8.95h11.95v3.04h-11.95v9.63Z"/>
        <path class="cls-25" d="m122.38,476.29h-3.38v-24.67h-9.26v-3.04h21.89v3.04h-9.26v24.67Z"/>
        <path class="cls-34" d="m160.57,464.82v11.48h-3.38v-27.71h7.18c1.21,0,2.24.05,3.09.13.85.09,1.62.23,2.33.42,1.93.53,3.41,1.42,4.43,2.68,1.02,1.26,1.53,2.84,1.53,4.73,0,1.12-.18,2.12-.54,3-.36.88-.86,1.65-1.51,2.3-.65.65-1.43,1.18-2.33,1.59s-1.91.72-3.01.91v.08l8.2,11.85h-3.38l-8.53-11.48h-4.08Zm0-13.19v10.15h3.33c1.04,0,1.92-.03,2.65-.1.73-.07,1.39-.19,1.97-.37,1.17-.36,2.08-.93,2.71-1.72.64-.79.95-1.82.95-3.09-.01-1.19-.32-2.14-.91-2.87s-1.42-1.25-2.47-1.56c-.5-.15-1.09-.26-1.78-.33-.69-.07-1.57-.1-2.63-.1h-3.83Z"/>
        <path class="cls-9" d="m206.89,473.25h14.21v3.04h-17.59v-27.71h16.82v3.04h-13.44v8.95h11.95v3.04h-11.95v9.63Z"/>
        <path class="cls-1" d="m245.31,476.29l11.29-27.71h2.92l11.29,27.71h-3.67l-3.31-8.35h-11.59l-3.31,8.35h-3.62Zm12.72-23.41c-1.24,3.45-2.42,6.58-3.54,9.4l-1.04,2.61h9.19l-1.05-2.61c-1.14-2.87-2.3-6.01-3.47-9.41h-.08Z"/>
        <path class="cls-13" d="m303.93,476.29h-3.38v-24.67h-9.26v-3.04h21.89v3.04h-9.26v24.67Z"/>
        <path class="cls-21" d="m341.44,455.91c0,.81.17,1.49.5,2.02.33.53.77.97,1.33,1.32.56.35,1.21.63,1.94.85.74.22,1.5.43,2.3.62,1.07.26,2.13.55,3.17.87,1.04.32,1.97.76,2.78,1.32s1.47,1.29,1.97,2.19c.5.9.75,2.05.75,3.46s-.27,2.68-.82,3.72c-.54,1.04-1.3,1.9-2.26,2.57-.96.67-2.1,1.17-3.41,1.49-1.31.32-2.75.49-4.31.49-.72,0-1.45-.05-2.21-.13-.75-.09-1.47-.21-2.15-.36-.68-.15-1.3-.32-1.85-.52-.55-.19-.99-.39-1.3-.58v-3.09c.5.25,1.06.48,1.68.68.62.21,1.26.38,1.93.53.66.15,1.33.26,2.01.34s1.31.12,1.91.12c.97,0,1.89-.08,2.77-.25.88-.17,1.65-.44,2.31-.83.66-.39,1.19-.91,1.57-1.58.39-.67.58-1.51.58-2.52,0-.83-.17-1.51-.51-2.05s-.79-.98-1.36-1.34c-.57-.35-1.22-.64-1.96-.86-.74-.22-1.52-.43-2.33-.62-1.08-.25-2.13-.53-3.16-.84-1.03-.31-1.95-.74-2.75-1.29-.81-.55-1.46-1.26-1.95-2.13-.49-.87-.73-1.98-.73-3.33s.26-2.62.77-3.64c.51-1.02,1.21-1.85,2.09-2.52s1.89-1.15,3.04-1.47c1.15-.32,2.37-.48,3.67-.48,1.48,0,2.85.14,4.13.42,1.28.28,2.45.65,3.51,1.11v3.13c-1.15-.48-2.33-.88-3.55-1.18-1.22-.3-2.53-.46-3.93-.48-1.05,0-1.96.11-2.73.34-.77.23-1.42.55-1.93.97-.51.42-.89.93-1.14,1.53-.25.6-.37,1.27-.37,2Z"/>
      </g>
      <g>
        <path class="cls-8" d="m188.86,0c76.19,0,138.17,62.19,138.17,138.64v148.71c0,6.27-4.38,10.65-10.65,10.65h-88.52v-4.97h88.52c3.89,0,6.16-1.86,6.16-5.94v-148.46c0-71-59.3-134-133.67-134-74.37,0-133.67,63-133.67,134v148.46c0,4.07,2.27,5.94,6.16,5.94h88.52v4.97H61.34c-6.27,0-10.65-4.38-10.65-10.65v-148.71C50.69,62.19,112.67,0,188.86,0"/>
        <path class="cls-16" d="m165.23,316.87H50.69v-10.17l104.07.29v-98.1c0-13.74-3.44-27.04-49.33-47.22-16.11-7.09-25.98-13.61-32.03-18.9v139.11h-10.17v-140.77c0-4.22.21-8.48.63-12.66,0,0,.85-9.07,3.79-17.03,1.37,8.45,6.22,16.3,6.22,16.3.55,1.27,5.79,11.48,35.66,24.62,41.65,18.32,55.7,32.51,55.7,56.25v108.27Z"/>
        <path class="cls-2" d="m211.37,208.59c0-23.74,14.43-37.93,56.07-56.25,29.86-13.13,35.1-23.35,35.66-24.62,0,0,4.85-7.85,6.22-16.3,2.94,7.95,3.79,17.03,3.79,17.03.42,4.18.63,8.43.63,12.66v140.77h-10.17v-139.11c-6.04,5.29-15.91,11.81-32.03,18.9-45.89,20.18-49.62,33.2-49.62,46.94v98.1s105.1,0,105.1,0v10.17h-115.65v-108.27Z"/>
        <path class="cls-30" d="m202.21,111.42s-5.82,7.76-12.89,7.76-12.6-7.76-12.6-7.76c0,0,5.48-7.76,12.6-7.76,6.22,0,12.89,7.76,12.89,7.76Z"/>
        <path class="cls-3" d="m156.73,154.82s-9.62,1.27-14.56-3.78c-4.98-5.09-3.27-14.43-3.27-14.43,0,0,9.38-1.51,14.36,3.58,4.35,4.44,3.47,14.63,3.47,14.63Z"/>
        <path class="cls-20" d="m102.73,123.68s-10.57-.38-14.96-6.7c-4.43-6.37-.91-16.11-.91-16.11,0,0,10.35.08,14.79,6.45,3.87,5.56,1.08,16.36,1.08,16.36Z"/>
        <path class="cls-6" d="m220.07,154.82s9.62,1.27,14.56-3.78c4.98-5.09,3.27-14.43,3.27-14.43,0,0-9.38-1.51-14.36,3.58-4.35,4.44-3.47,14.63-3.47,14.63Z"/>
        <path class="cls-17" d="m276.14,123.68s10.57-.38,14.96-6.7c4.43-6.37.91-16.11.91-16.11,0,0-10.35.08-14.79,6.45-3.87,5.56-1.08,16.36-1.08,16.36Z"/>
        <path class="cls-14" d="m237.41,74.94s11.08-.4,15.7-7.03.95-16.9.95-16.9c0,0-10.86.08-15.51,6.77-4.06,5.84-1.14,17.16-1.14,17.16Z"/>
        <path class="cls-28" d="m140.11,74.94s-11.08-.4-15.7-7.03-.95-16.9-.95-16.9c0,0,10.86.08,15.51,6.77,4.06,5.84,1.14,17.16,1.14,17.16Z"/>
        <path class="cls-15" d="m188.76,62.97s-11.07-8.31-11.07-18.39,11.07-17.99,11.07-17.99c0,0,11.07,7.82,11.07,17.99,0,8.87-11.07,18.39-11.07,18.39Z"/>
        <rect class="cls-29" x="160.84" y="244.88" width="54.65" height="10.43"/>
        <path class="cls-26" d="m174.65,152.17c-12.79,16.65-19.85,36.31-19.85,61.77h10.43c0-22.32,5.88-39.63,16.88-54.43-2.24-2.42-4.72-4.87-7.46-7.34Z"/>
        <path class="cls-33" d="m279.36,50.24h-.27c-.05,1.25-1.72,30.97-44.08,54.79-21.92,12.32-40.14,24.67-53.65,39.21,2.69,2.42,5.17,4.84,7.44,7.23,12.58-13.63,29.91-25.31,51.33-37.35,33.41-18.79,44.22-41.6,47.71-54.17-2.66-3.38-5.48-6.63-8.47-9.71Z"/>
        <g>
          <path class="cls-32" d="m145.68,109.65c-46.19-27.96-47.32-56.02-47.32-56.32h-.25c-2.93,3.23-5.67,6.63-8.25,10.15,3.73,11.87,14.7,32.49,46.91,52.91,2.93-2.52,5.94-4.75,8.91-6.75Z"/>
          <path class="cls-31" d="m156.11,115.58c-3.15,1.87-6.42,4.07-9.63,6.6,1.11.62,2.22,1.23,3.37,1.85,57.14,30.63,61.59,65.66,61.59,75.66v38.28h10.43v-38.28c0-11.39-4.8-50.9-65.75-84.11Z"/>
        </g>
        <path class="cls-11" d="m245.63,122.72c-.21.12-.41.23-.62.35,8.91,9.07,13.12,19.22,13.12,33.2h10.43c0-16.31-5.19-28.44-14.51-38.68-2.64,1.73-5.43,3.45-8.42,5.12Z"/>
        <path class="cls-19" d="m236.67,115.82c1.27-.73,2.56-1.46,3.86-2.19,2.01-1.13,3.9-2.28,5.74-3.43-13.21-10.99-31.66-20.19-53.75-31.17-40.38-20.09-43.69-54.42-43.95-59.37-3.43,1.22-6.79,2.59-10.07,4.09,1.54,11.94,9.38,44.71,49.38,64.61,21.31,10.6,37.42,18.87,48.8,27.46Z"/>
        <path class="cls-4" d="m130.07,124.36c.21.12.41.23.62.35-8.91,9.07-13.12,19.22-13.12,33.2h-10.43c0-16.31,5.19-28.44,14.51-38.68,2.64,1.73,5.43,3.45,8.42,5.12Z"/>
        <g>
          <path class="cls-12" d="m184.3,86.22c1.87.93,3.7,1.84,5.51,2.75,38.3-20.06,47.04-54.33,48.55-66.06-3.28-1.5-6.36-2.43-9.78-3.65-.27,4.94-5.01,41.32-45.39,61.41-1.61.8-3.19,1.59-4.76,2.37,1.87,1.09,3.81,2.16,5.87,3.19Z"/>
          <path class="cls-18" d="m167.54,88.51c-15.13,7.71-27.91,14.86-37.86,23.13,1.83,1.15,3.09,1.87,4.9,3.3,1.46,1.15,2.76,2.07,4.04,2.8,9.61-7.25,22.89-14.48,39.61-22.93-3.86-1.99-7.42-4.1-10.69-6.3Z"/>
        </g>
      </g>
    </g>
  </g>
</svg>