<?xml version="1.0" encoding="UTF-8"?>
<svg id="Layer_2" data-name="Layer 2" xmlns="http://www.w3.org/2000/svg" viewBox="0 0 1486.97 1678.04">
  <defs>
    <style>
      .cls-1 {
        stroke: #fff;
        stroke-miterlimit: 10;
        stroke-width: 40px;
      }

      .cls-1, .cls-2 {
        fill: #dfae64;
      }

      .cls-2 {
        stroke-width: 0px;
      }
    </style>
  </defs>
  <g id="Layer_1-2" data-name="Layer 1">
    <g>
      <g>
        <path class="cls-2" d="m1220.04,0c-117.94,0-213.55,95.61-213.55,213.55s213.55,373.71,213.55,373.71c0,0,213.55-255.77,213.55-373.71S1337.98,0,1220.04,0Zm0,293.63c-44.23,0-80.08-35.85-80.08-80.08s35.85-80.08,80.08-80.08,80.08,35.85,80.08,80.08-35.85,80.08-80.08,80.08Z"/>
        <path class="cls-2" d="m472.61,186.86c-88.46,0-160.16,71.71-160.16,160.16s160.16,293.63,160.16,293.63c0,0,160.16-205.18,160.16-293.63s-71.71-160.16-160.16-160.16Zm0,213.55c-29.48,0-53.39-23.9-53.39-53.39s23.9-53.39,53.39-53.39,53.39,23.9,53.39,53.39-23.9,53.39-53.39,53.39Z"/>
        <g>
          <g>
            <path class="cls-2" d="m692.3,1627.79c-116.12-35.77-217.55-105.17-293.1-196.73,47.52-15.75,99.3-29.1,154.02-39.77,33.63,99.3,81.42,180.98,139.07,236.51Z"/>
            <path class="cls-2" d="m1346.83,1431.06c-75.54,91.56-176.98,160.97-293.1,196.73,57.66-55.52,105.44-137.21,139.07-236.51,54.72,10.68,106.51,24.02,154.02,39.77Z"/>
            <path class="cls-2" d="m1486.97,1067.75c-4.8,117.99-44.05,227.16-106.78,318.72-52.59-18.69-110.51-34.44-171.91-46.45,22.69-81.95,36.04-174.04,37.9-272.28h240.78Z"/>
            <path class="cls-2" d="m537.74,1340.03c-61.4,12.01-119.32,27.76-171.91,46.45-62.73-91.56-101.97-200.74-106.78-318.72h240.78c1.87,98.23,15.22,190.33,37.9,272.28Z"/>
            <path class="cls-2" d="m537.74,742.09c-22.69,81.95-36.04,174.04-37.9,272.28h-240.78c4.8-117.99,44.05-227.16,106.78-318.72,52.59,18.69,110.51,34.43,171.91,46.45Z"/>
            <path class="cls-2" d="m1486.97,1014.37h-240.78c-1.87-98.23-15.22-190.33-37.9-272.28,61.4-12.01,119.32-27.76,171.91-46.45,62.73,91.56,101.97,200.74,106.78,318.72Z"/>
            <path class="cls-2" d="m1346.83,651.06c-47.52,15.75-99.3,29.09-154.02,39.77-33.63-99.3-81.42-180.98-139.07-236.51,8.27,2.67,16.55,5.34,24.82,8.28,43.24,62.46,84.89,113.45,100.37,132.14l41.11,49.12,41.11-49.12c3.47-4.27,8.28-9.88,14.15-17.08,25.89,22.42,49.92,46.98,71.54,73.41Z"/>
            <path class="cls-2" d="m430.43,646.79l14.42,18.15c-15.75-4.27-30.97-9.08-45.65-13.88,5.87-7.21,12.01-14.15,18.15-21.09,5.61,7.21,9.88,12.81,13.08,16.82Z"/>
            <path class="cls-2" d="m692.3,454.33c-57.66,55.52-105.44,137.21-139.07,236.51-21.09-4.27-41.91-8.81-62.2-13.61l23.76-30.43c16.55-21.09,70.74-92.36,113.98-168.71,20.55-9.08,41.91-17.08,63.53-23.76Z"/>
          </g>
          <g>
            <path class="cls-2" d="m846.32,1361.65v293.37c-99.84-15.48-186.86-121.99-239.71-273.35,76.34-12.01,157.23-18.95,239.71-20.02Z"/>
            <path class="cls-2" d="m1139.42,1381.67c-52.85,151.35-139.88,257.86-239.71,273.35v-293.37c82.48,1.07,163.37,8.01,239.71,20.02Z"/>
            <path class="cls-2" d="m1192.81,1067.75c-1.87,94.5-15.22,183.65-37.37,262.4-81.15-13.08-167.64-20.82-255.73-21.89v-240.51h293.1Z"/>
            <path class="cls-2" d="m846.32,1067.75v240.51c-88.09,1.07-174.58,8.81-255.73,21.89-22.15-78.75-35.5-167.9-37.37-262.4h293.1Z"/>
            <path class="cls-2" d="m846.32,773.85v240.51h-293.1c1.87-94.5,15.22-183.65,37.37-262.4,81.15,13.08,167.64,20.82,255.73,21.89Z"/>
            <path class="cls-2" d="m1192.81,1014.37h-293.1v-240.51c88.09-1.07,174.58-8.81,255.73-21.89,22.16,78.75,35.5,167.9,37.37,262.4Z"/>
            <path class="cls-2" d="m1139.42,700.45c-76.34,12.01-157.23,18.95-239.71,20.02v-293.37c99.83,15.48,186.86,121.99,239.71,273.35Z"/>
            <path class="cls-2" d="m846.32,427.1v293.37c-82.48-1.07-163.37-8.01-239.71-20.02,52.85-151.35,139.87-257.86,239.71-273.35Z"/>
          </g>
        </g>
      </g>
      <path class="cls-1" d="m604.58,1157.7c0,8.5-5.15,16.16-13.09,19.22l-122.71,47.08c-43.18,16.57-77.02,51.12-92.9,94.71l-46.66,128.56c-.33.96-1.06,1.65-1.54,2.51-.4.72-.78,1.42-1.27,2.07-.75.99-1.5,1.88-2.43,2.68-1.43,1.29-3.01,2.4-4.78,3.19-1.11.42-2.23.84-3.34.97-1.11.28-2.23.42-3.34.42l-3.62-.42c-1.11-.14-2.23-.56-3.34-.97-1.84-.8-3.45-1.95-4.9-3.26-.9-.78-1.62-1.65-2.36-2.6-.42-.56-.76-1.15-1.11-1.75-.58-.96-1.39-1.75-1.8-2.83l-46.66-128.56c-15.74-43.6-49.59-78.14-92.76-94.71l-122.71-47.08c-7.94-3.06-13.23-10.73-13.23-19.22,0-8.91,5.85-16.85,14.35-19.5l112.26-35.38c48.61-15.32,86.91-52.93,103.35-101.12l45.69-134.97c.56-1.53,1.25-2.93,2.09-4.18.56-.84,1.11-1.67,1.95-2.37,1.67-1.81,3.76-3.2,6.27-4.18.7-.28,1.53-.56,2.37-.7,1.25-.42,2.65-.56,4.04-.56s2.79.14,4.04.56c.84.14,1.67.42,2.37.7,2.23.84,4.18,2.23,5.85,3.76.7.7,1.25,1.39,1.81,2.09,1.11,1.53,2.09,3.06,2.65,4.87l45.69,134.97c16.3,48.19,54.74,85.8,103.21,101.12l112.26,35.38c8.64,2.65,14.35,10.59,14.35,19.5Z"/>
      <path class="cls-1" d="m818.97,1446.1c0,5.97-3.62,11.36-9.21,13.52l-86.29,33.11c-30.36,11.65-54.16,35.95-65.33,66.6l-32.81,90.4c-.23.68-.75,1.16-1.09,1.77-.28.5-.55,1-.89,1.45-.53.7-1.05,1.32-1.71,1.88-1.01.9-2.12,1.69-3.36,2.24-.78.29-1.57.59-2.35.69-.78.2-1.57.29-2.35.29l-2.55-.29c-.78-.1-1.57-.39-2.35-.69-1.29-.56-2.42-1.37-3.45-2.29-.63-.55-1.14-1.16-1.66-1.83-.29-.39-.53-.81-.78-1.23-.41-.68-.98-1.23-1.26-1.99l-32.81-90.4c-11.07-30.66-34.87-54.95-65.23-66.6l-86.29-33.11c-5.58-2.16-9.3-7.54-9.3-13.52,0-6.27,4.11-11.85,10.09-13.71l78.94-24.88c34.18-10.77,61.12-37.22,72.67-71.11l32.13-94.91c.39-1.08.88-2.06,1.47-2.94.39-.59.78-1.18,1.37-1.67,1.18-1.27,2.64-2.25,4.41-2.94.49-.2,1.08-.39,1.66-.49.88-.29,1.86-.39,2.84-.39s1.96.1,2.84.39c.59.1,1.18.29,1.66.49,1.57.59,2.94,1.57,4.11,2.64.49.49.88.98,1.27,1.47.78,1.08,1.47,2.15,1.86,3.43l32.13,94.91c11.46,33.89,38.49,60.33,72.58,71.11l78.94,24.88c6.07,1.86,10.09,7.44,10.09,13.71Z"/>
    </g>
  </g>
</svg>