<svg id="Group_4" data-name="Group 4" xmlns="http://www.w3.org/2000/svg" width="32" height="36.364" viewBox="0 0 32 36.364">
  <path id="Path_24" data-name="Path 24" d="M0,11.637V33.421a2.926,2.926,0,0,0,2.909,2.943H29.091A2.926,2.926,0,0,0,32,33.421V11.637ZM8,34.182H2.182V28.364H8Zm0-7.273H2.182V21.091H8Zm0-7.273H2.182V13.818H8Zm7.273,14.546H9.455V28.364h5.818Zm0-7.273H9.455V21.091h5.818Zm0-7.273H9.455V13.818h5.818Zm7.273,14.546H16.727V28.364h5.818Zm0-7.273H16.727V21.091h5.818Zm0-7.273H16.727V13.818h5.818Zm7.273,14.546H24V28.364h5.818Zm0-7.273H24V21.091h5.818Zm0-7.273H24V13.818h5.818Z" fill="#b08e54"/>
  <path id="Path_25" data-name="Path 25" d="M29.091,4.364H24.364V1.091a1.091,1.091,0,1,0-2.182,0V4.364H9.818V1.091a1.091,1.091,0,0,0-2.182,0V4.364H2.909A2.926,2.926,0,0,0,0,7.307v2.875H32V7.307A2.926,2.926,0,0,0,29.091,4.364ZM8.727,9.455A2.18,2.18,0,0,1,7.636,5.385V7.273a1.091,1.091,0,0,0,2.182,0V5.385A2.181,2.181,0,0,1,8.727,9.455Zm14.545,0a2.18,2.18,0,0,1-1.091-4.069V7.273a1.091,1.091,0,1,0,2.182,0V5.385a2.181,2.181,0,0,1-1.091,4.069Z" fill="#b08e54"/>
</svg>
