<svg id="Group_3" data-name="Group 3" xmlns="http://www.w3.org/2000/svg" width="22.5" height="20.497" viewBox="0 0 22.5 20.497">
  <path id="Path_14" data-name="Path 14" d="M2.75,9.5h3a.751.751,0,0,0,.75-.75v-1A.751.751,0,0,0,5.75,7h-3a.751.751,0,0,0-.75.75v1a.751.751,0,0,0,.75.75Zm-.25-.75V8.5H3V9H2.75a.25.25,0,0,1-.25-.25ZM5,9H3.5V7.5H5Zm.75,0H5.5V8.5H6v.25A.25.25,0,0,1,5.75,9ZM6,7.747V8H5.5V7.5h.25a.25.25,0,0,1,.25.25ZM2.75,7.5H3V8H2.5v-.25a.25.25,0,0,1,.25-.25Z" fill="#fff"/>
  <path id="Path_15" data-name="Path 15" d="M10.25,8.5h4a.25.25,0,1,0,0-.5h-4a.25.25,0,1,0,0,.5Z" fill="#fff"/>
  <path id="Path_16" data-name="Path 16" d="M2.25,11.5h4a.25.25,0,1,0,0-.5h-4a.25.25,0,0,0,0,.5Z" fill="#fff"/>
  <path id="Path_17" data-name="Path 17" d="M2.25,12.5h6a.25.25,0,1,0,0-.5h-6a.25.25,0,0,0,0,.5Z" fill="#fff"/>
  <path id="Path_18" data-name="Path 18" d="M2.25,13.5h2a.25.25,0,1,0,0-.5h-2a.25.25,0,0,0,0,.5Z" fill="#fff"/>
  <path id="Path_19" data-name="Path 19" d="M22.211,12.283a.729.729,0,0,0-.576-.16,2.838,2.838,0,0,1-2.8-1.211.743.743,0,0,0-.605-.319h-.008a.741.741,0,0,0-.6.3,3.308,3.308,0,0,1-1.123.94V9.9l.874-.507A2.247,2.247,0,0,0,18.2,6.322l-3-5.2A2.253,2.253,0,0,0,12.125.3L3.992,5H2.25A2.253,2.253,0,0,0,0,7.247v2a.25.25,0,1,0,.5,0v-2A1.752,1.752,0,0,1,2.25,5.5h12A1.752,1.752,0,0,1,16,7.247v4.787a2.875,2.875,0,0,1-1.245.089.721.721,0,0,0-.575.159.778.778,0,0,0-.281.563,9.293,9.293,0,0,0,.049,1.43c.027.248.07.487.115.723H2.25A1.752,1.752,0,0,1,.5,13.247v-3a.25.25,0,1,0-.5,0v3A2.253,2.253,0,0,0,2.25,15.5H14.177a10.625,10.625,0,0,0,2.1,4.108,2.5,2.5,0,0,0,3.83,0,11.531,11.531,0,0,0,.881-1.227.25.25,0,0,0-.424-.264,10.887,10.887,0,0,1-.844,1.172,2,2,0,0,1-3.057,0,9.772,9.772,0,0,1-2.224-5.067,8.921,8.921,0,0,1-.045-1.353.27.27,0,0,1,.1-.2.22.22,0,0,1,.182-.052,3.384,3.384,0,0,0,1.6-.133,3.7,3.7,0,0,0,1.75-1.291.244.244,0,0,1,.4.008,3.332,3.332,0,0,0,3.285,1.416.224.224,0,0,1,.183.052.27.27,0,0,1,.1.2,8.92,8.92,0,0,1-.044,1.354,9.064,9.064,0,0,1-.845,2.919.25.25,0,1,0,.451.217,9.538,9.538,0,0,0,.89-3.081,9.28,9.28,0,0,0,.048-1.43.77.77,0,0,0-.28-.561ZM12.374.734a1.752,1.752,0,0,1,2.39.639l.076.132L13.125,2.5a.25.25,0,0,0,.25.434l1.713-.99.75,1.3L12.782,5H9.794l2.655-1.533a.25.25,0,0,0-.25-.434L8.793,5h-3.8ZM14.25,5h-.466l2.3-1.329,1.675,2.9a1.746,1.746,0,0,1-.639,2.389l-.625.363V7.247A2.253,2.253,0,0,0,14.25,5Z" fill="#fff"/>
  <path id="Path_20" data-name="Path 20" d="M19.519,14.368l-1.646,1.646a.25.25,0,0,1-.354,0l-.646-.646a.25.25,0,0,0-.41.272.249.249,0,0,0,.056.081l.646.646a.75.75,0,0,0,1.061,0l1.646-1.646a.25.25,0,0,0-.354-.354Z" fill="#fff"/>
</svg>
