<svg xmlns="http://www.w3.org/2000/svg" width="68" height="65" viewBox="0 0 68 65">
  <g id="Group_175" data-name="Group 175" transform="translate(2799 -6001)">
    <path id="Path_168" data-name="Path 168" d="M8.038,39.7v4.526a5.556,5.556,0,0,1,3,.686.894.894,0,0,1,.459.781v8.281a.893.893,0,0,1-.511.809,5.525,5.525,0,0,1-2.952.657v7.338L19.232,58.2a.87.87,0,0,1,.662,0l11.195,4.581V39.7L19.563,34.989ZM56.716,28.292v5.425a.883.883,0,1,1-1.766,0V19.669a.888.888,0,0,1,.883-.893H67.118a.9.9,0,0,1,.514,1.617Zm0-2.194,7.652-5.536H56.716ZM6.1,24.615a1.434,1.434,0,0,0-1,2.442,1.423,1.423,0,1,0,1-2.442Zm-2.25-.843a3.191,3.191,0,1,1,0,4.547A3.24,3.24,0,0,1,3.848,23.771Zm6.55-2.005a6.23,6.23,0,0,1,.015,8.739L6.722,34.236a.877.877,0,0,1-1.249,0L1.782,30.5a6.228,6.228,0,0,1,0-8.723A6.075,6.075,0,0,1,10.4,21.766ZM9.163,23.043a4.433,4.433,0,0,1,0,6.2L6.1,32.342l-3.067-3.1a4.433,4.433,0,0,1,0-6.194A4.32,4.32,0,0,1,9.163,23.043ZM31.972,0A11.09,11.09,0,0,0,21.236,13.517H14.885a2.956,2.956,0,0,0-2.934,2.965v2.073a2.956,2.956,0,0,0,2.934,2.965h13.23a10.928,10.928,0,0,0,7.713,0h13.23a2.956,2.956,0,0,0,2.934-2.965V16.483a2.956,2.956,0,0,0-2.934-2.965H42.708A11.09,11.09,0,0,0,31.972,0ZM42.158,15.3h6.9a1.18,1.18,0,0,1,1.168,1.18v2.073a1.18,1.18,0,0,1-1.168,1.18H38.906A11.127,11.127,0,0,0,42.158,15.3ZM25.039,19.736H14.885a1.18,1.18,0,0,1-1.168-1.18V16.483a1.18,1.18,0,0,1,1.168-1.18h6.9A11.128,11.128,0,0,0,25.039,19.736ZM38.5,4.517a9.4,9.4,0,0,1,0,13.19,9.16,9.16,0,0,1-13.051,0,9.4,9.4,0,0,1,0-13.19A9.16,9.16,0,0,1,38.5,4.517Zm17.081,41.49a3.652,3.652,0,0,0-1.369.254v7.154a3.825,3.825,0,1,0,1.369-7.409ZM54.2,44.4a5.493,5.493,0,0,0-1.3.516.892.892,0,0,0-.457.781v8.281a.893.893,0,0,0,.51.809,5.528,5.528,0,0,0,2.952.657v7.339L44.712,58.2a.87.87,0,0,0-.662,0L32.855,62.784V39.7l11.526-4.716L55.907,39.7v4.526A5.467,5.467,0,0,0,54.2,44.4Zm3.475.234a5.65,5.65,0,0,1,1.835,9.175,5.56,5.56,0,0,1-1.835,1.233v9.065a.887.887,0,0,1-1.213.826L44.381,59.991,32.345,64.916a.869.869,0,0,1-.745,0L19.563,59.991,7.528,64.916a.883.883,0,0,1-1.256-.809V55.042a5.65,5.65,0,0,1-1.835-9.176,5.56,5.56,0,0,1,1.835-1.233V39.1a.892.892,0,0,1,.551-.826l5.856-2.4V31.736a8.606,8.606,0,0,1,8.537-8.628H42.729a8.606,8.606,0,0,1,8.537,8.628v4.147l5.812,2.378a.892.892,0,0,1,.6.844v5.529Zm-50.3,8.9a3.828,3.828,0,1,1,2.359-7.277v7.154A3.768,3.768,0,0,1,7.375,53.537ZM49.5,35.159V31.736a6.862,6.862,0,0,0-4.9-6.575v8ZM42.835,33.7v-8.8H38.745V35.371Zm-5.856,2.4-5.007,2.049L27.235,36.2V24.893h9.744Zm-11.51-.612-4.09-1.673V24.893h4.09Zm-5.856-2.345a.872.872,0,0,0-.381.064l-4.787,1.959V31.736a6.859,6.859,0,0,1,5.168-6.648Z" transform="translate(-2799 6001)" fill="#a1834f" fill-rule="evenodd"/>
  </g>
</svg>
