<svg xmlns="http://www.w3.org/2000/svg" width="57.14" height="55.216" viewBox="0 0 57.14 55.216">
  <g id="Group_176" data-name="Group 176" transform="translate(2429 -6005)">
    <path id="Path_169" data-name="Path 169" d="M383.578,59.216H370.9a.905.905,0,0,1-.9-.905V35.681a.905.905,0,0,1,.9-.905h12.673a.905.905,0,0,1,.9.905V58.311A.905.905,0,0,1,383.578,59.216Zm-11.768-1.81h10.862V36.586H371.81Z" transform="translate(-2799 6001)" fill="#b08e54"/>
    <path id="Path_170" data-name="Path 170" d="M376.336,47.449a.905.905,0,0,1-.9-.905V35.681a.906.906,0,0,1,1.811,0V46.543A.906.906,0,0,1,376.336,47.449Z" transform="translate(-2799 6001)" fill="#b08e54"/>
    <path id="Path_171" data-name="Path 171" d="M376.336,51.069a.841.841,0,0,1-.176-.018.9.9,0,0,1-.17-.051.892.892,0,0,1-.156-.084.855.855,0,0,1-.25-.25.923.923,0,0,1-.084-.156.994.994,0,0,1-.051-.17.874.874,0,0,1,0-.353,1,1,0,0,1,.051-.17.919.919,0,0,1,.084-.156.855.855,0,0,1,.25-.25.881.881,0,0,1,.326-.135.9.9,0,0,1,.93.385.921.921,0,0,1,.084.156,1,1,0,0,1,.051.17.875.875,0,0,1,0,.353.994.994,0,0,1-.051.17.925.925,0,0,1-.084.156.891.891,0,0,1-.113.138A.916.916,0,0,1,376.336,51.069Z" transform="translate(-2799 6001)" fill="#b08e54"/>
    <path id="Path_172" data-name="Path 172" d="M407.112,42.923a.905.905,0,0,1,0-1.81,1.81,1.81,0,1,0,0-3.621h-5.431a.906.906,0,0,1-.908-.9c0-.024,0-.048,0-.072l.42-5.45a4.967,4.967,0,0,0-4.187-5.285l-.742,4.83a10.183,10.183,0,0,1-7.607,8.35L383.8,40.178a.905.905,0,1,1-.469-1.749l.03-.007,4.865-1.215a8.381,8.381,0,0,0,6.264-6.872l.87-5.657a.905.905,0,0,1,.895-.764,6.773,6.773,0,0,1,6.773,6.774c0,.173-.007.346-.02.519l-.34,4.475h4.449a3.621,3.621,0,1,1,0,7.242Z" transform="translate(-2799 6001)" fill="#b08e54"/>
    <path id="Path_173" data-name="Path 173" d="M408.923,48.354H405.3a.905.905,0,0,1,0-1.81h3.621a1.81,1.81,0,0,0,0-3.621h-5.431a.905.905,0,1,1,0-1.81h5.431a3.621,3.621,0,0,1,0,7.241Z" transform="translate(-2799 6001)" fill="#b08e54"/>
    <path id="Path_174" data-name="Path 174" d="M407.112,53.785a.905.905,0,0,1,0-1.81,1.81,1.81,0,0,0,0-3.621h-5.431a.905.905,0,0,1,0-1.81h5.431a3.621,3.621,0,1,1,0,7.241Z" transform="translate(-2799 6001)" fill="#b08e54"/>
    <path id="Path_175" data-name="Path 175" d="M405.3,59.216H392.341a11.871,11.871,0,0,1-6.607-2l-2.659-1.772a.906.906,0,0,1,1-1.507l2.659,1.772a10.071,10.071,0,0,0,5.6,1.7H405.3a1.81,1.81,0,0,0,0-3.621h-3.621a.905.905,0,0,1,0-1.81H405.3a3.621,3.621,0,1,1,0,7.241Z" transform="translate(-2799 6001)" fill="#b08e54"/>
    <path id="Path_176" data-name="Path 176" d="M426.234,29.345H401.681a.905.905,0,0,1,0-1.81h23.648V5.81h-52.5V27.535h22.856a.905.905,0,0,1,0,1.81H371.924a.905.905,0,0,1-.9-.905V4.905a.9.9,0,0,1,.9-.905h54.31a.906.906,0,0,1,.906.905V28.44A.906.906,0,0,1,426.234,29.345Z" transform="translate(-2799 6001)" fill="#b08e54"/>
    <path id="Path_177" data-name="Path 177" d="M383.07,20.334a.91.91,0,0,1-.308-.054l-2.352-.85-2.353.85a.9.9,0,0,1-1.212-.88l.081-2.5-1.535-1.974a.905.905,0,0,1,.462-1.42l2.407-.7,1.4-2.071a.905.905,0,0,1,1.5,0l1.4,2.071,2.406.7a.906.906,0,0,1,.463,1.426L383.894,16.9l.081,2.5a.905.905,0,0,1-.875.934Zm-2.66-2.771a.9.9,0,0,1,.308.053l1.4.508-.049-1.492a.918.918,0,0,1,.19-.586l.917-1.184-1.434-.414a.908.908,0,0,1-.5-.362l-.838-1.231-.839,1.236a.9.9,0,0,1-.5.362l-1.434.41.916,1.179a.913.913,0,0,1,.191.586L378.7,18.12l1.4-.508A.9.9,0,0,1,380.41,17.563Z" transform="translate(-2799 6001)" fill="#b08e54"/>
    <path id="Path_178" data-name="Path 178" d="M395.516,20.334a.91.91,0,0,1-.308-.054l-2.352-.85-2.353.85a.9.9,0,0,1-1.159-.543.922.922,0,0,1-.054-.337l.082-2.5-1.536-1.974a.906.906,0,0,1,.463-1.42l2.407-.7,1.4-2.071a.905.905,0,0,1,1.5,0l1.4,2.071,2.407.7a.906.906,0,0,1,.463,1.426L396.339,16.9l.082,2.5a.905.905,0,0,1-.875.934Zm-2.66-2.771a.9.9,0,0,1,.307.053l1.4.508-.049-1.492a.912.912,0,0,1,.19-.586l.916-1.184-1.433-.414a.908.908,0,0,1-.5-.362l-.838-1.231-.839,1.236a.9.9,0,0,1-.5.362l-1.433.41L391,16.041a.906.906,0,0,1,.19.586l-.048,1.492,1.4-.508A.9.9,0,0,1,392.856,17.563Z" transform="translate(-2799 6001)" fill="#b08e54"/>
    <path id="Path_179" data-name="Path 179" d="M407.962,20.334a.91.91,0,0,1-.308-.054l-2.352-.85-2.352.85a.9.9,0,0,1-1.213-.88l.081-2.5-1.535-1.974a.905.905,0,0,1,.462-1.42l2.407-.7,1.4-2.071a.9.9,0,0,1,1.5,0l1.4,2.071,2.406.7a.9.9,0,0,1,.618,1.121.883.883,0,0,1-.155.3L408.786,16.9l.081,2.5a.905.905,0,0,1-.875.934Zm-2.66-2.771a.9.9,0,0,1,.308.053l1.4.508-.049-1.492a.918.918,0,0,1,.19-.586l.917-1.184-1.435-.41a.907.907,0,0,1-.5-.362l-.838-1.236-.839,1.236a.9.9,0,0,1-.5.362l-1.435.41.917,1.179a.918.918,0,0,1,.19.586l-.049,1.492,1.4-.508A.9.9,0,0,1,405.3,17.563Z" transform="translate(-2799 6001)" fill="#b08e54"/>
    <path id="Path_180" data-name="Path 180" d="M420.408,20.334a.91.91,0,0,1-.308-.054l-2.352-.85-2.352.85a.9.9,0,0,1-1.159-.543.882.882,0,0,1-.054-.337l.081-2.5-1.535-1.974a.9.9,0,0,1,.463-1.42l2.406-.7,1.4-2.071a.905.905,0,0,1,1.5,0l1.4,2.071,2.407.7a.9.9,0,0,1,.462,1.426L421.232,16.9l.081,2.5a.9.9,0,0,1-.875.934Zm-2.66-2.771a.9.9,0,0,1,.308.053l1.4.508-.049-1.492a.913.913,0,0,1,.191-.586l.916-1.184-1.435-.41a.905.905,0,0,1-.5-.362l-.839-1.236-.838,1.236a.9.9,0,0,1-.5.362l-1.435.41.917,1.179a.918.918,0,0,1,.19.586l-.049,1.492,1.4-.508A.9.9,0,0,1,417.748,17.563Z" transform="translate(-2799 6001)" fill="#b08e54"/>
    <path id="Path_181" data-name="Path 181" d="M407.112,53.785h-3.62a.905.905,0,1,1,0-1.81h3.62a.905.905,0,0,1,0,1.81Z" transform="translate(-2799 6001)" fill="#b08e54"/>
  </g>
</svg>
