<svg xmlns="http://www.w3.org/2000/svg" width="36.043" height="36.841" viewBox="0 0 36.043 36.841">
  <path id="Path_26" data-name="Path 26" d="M36,27.062a.548.548,0,0,1-.061.169,1.026,1.026,0,0,1-.092.184,21.562,21.562,0,0,1-35.643,0,1.033,1.033,0,0,1-.092-.184.551.551,0,0,1-.061-.169,1.093,1.093,0,0,1,.107-.875c2.917-5.265,9.932-8.658,17.868-8.658s14.951,3.392,17.868,8.658a1.093,1.093,0,0,1,.107.875ZM18.022,14.66a7.344,7.344,0,1,0-5.181-2.146A7.33,7.33,0,0,0,18.022,14.66Z" fill="#b08e54"/>
</svg>
