<svg xmlns="http://www.w3.org/2000/svg" width="18" height="18" viewBox="0 0 18 18">
  <path id="Path_13" data-name="Path 13" d="M12,124.462a.264.264,0,0,0-.186.45.261.261,0,0,0,.135.072.264.264,0,0,0,.271-.112.261.261,0,0,0,.044-.146.263.263,0,0,0-.264-.264ZM19.682,112H4.318A1.321,1.321,0,0,0,3,113.318v11.493a1.319,1.319,0,0,0,1.318,1.318H9.926v1.621H9.243a.862.862,0,0,0-.773.476.272.272,0,0,0-.016.04l-.434,1.392a.263.263,0,0,0,.04.235.253.253,0,0,0,.094.079.262.262,0,0,0,.12.028h7.453a.262.262,0,0,0,.212-.107.268.268,0,0,0,.048-.113.263.263,0,0,0-.008-.122l-.434-1.392a.279.279,0,0,0-.016-.04.862.862,0,0,0-.773-.476h-.68v-1.621h5.607A1.319,1.319,0,0,0,21,124.811V113.318A1.32,1.32,0,0,0,19.682,112Zm-4.925,16.277a.344.344,0,0,1,.169.045.341.341,0,0,1,.123.124l.32,1.027H8.631l.32-1.027a.335.335,0,0,1,.292-.169Zm-4.3-.527v-1.621h3.094v1.621Zm10.02-2.939a.792.792,0,0,1-.791.791H4.318a.792.792,0,0,1-.791-.791V113.318a.792.792,0,0,1,.791-.791H19.682a.792.792,0,0,1,.791.791ZM19.361,113.2H4.639a.439.439,0,0,0-.439.439v9.652a.44.44,0,0,0,.439.439H19.361a.44.44,0,0,0,.44-.439v-9.652a.439.439,0,0,0-.44-.439Zm-.088,10H4.727v-9.476H19.273Z" transform="translate(-3 -112)" fill="#fff"/>
</svg>
