<?xml version="1.0" encoding="utf-8"?>
<!-- Generator: Adobe Illustrator 28.0.0, SVG Export Plug-In . SVG Version: 6.00 Build 0)  -->
<svg version="1.1" id="Layer_1" xmlns="http://www.w3.org/2000/svg" xmlns:xlink="http://www.w3.org/1999/xlink" x="0px" y="0px"
	 viewBox="0 0 2000 2000" style="enable-background:new 0 0 2000 2000;" xml:space="preserve">
<style type="text/css">
	.st0{fill:#DFAE64;}
</style>
<g id="g6723_1_">
	<g>
		<g id="path5362_00000066498368591300488510000007504744987969445566_">
			<path class="st0" d="M1578.5,1071.7c-13.9,0-31.9-7.8-69.9-25.6c-8.7-4-19.8-9.3-26.6-12c-6.7,2.8-17.7,7.9-26.4,12
				c-38.1,17.8-56.3,25.6-70.1,25.6c-5.9,0-14.2-2.5-19-5.9c-18.2-13.3-15.5-35.9-8.7-90.5c1.2-9.5,2.7-21.8,3.3-28.9
				c-4.7-5.5-13.1-14.5-19.6-21.5c-37.6-40.2-53.1-56.9-46.2-78.4c7-21.6,30.9-26.2,83.6-36.4c9.4-1.8,21.4-4.1,28.5-5.8
				c3.8-6.2,9.8-17.1,14.5-25.5c26.6-48.1,37.6-68,60.2-68c22.7,0,34.5,21.4,60.5,68.3c4.6,8.3,10.5,19,14.3,25.2
				c7,1.7,19,4,28.4,5.8c52.6,10.2,76.7,14.8,83.6,36.5c7.1,21.4-9.6,39.3-46.3,78.4c-6.5,7-14.9,15.9-19.6,21.5
				c0.5,7.2,2,19.3,3.3,28.8c6.6,53.2,9.6,77.4-8.8,90.7C1592.6,1069.2,1584.3,1071.7,1578.5,1071.7z M1365.9,869.2
				c5.8,6.4,11.8,12.8,16.2,17.6c22.6,24.2,29.9,32.3,33,41.7c3.1,9.7,2,20.6-2.1,53.5c-0.8,6.4-1.9,15.2-2.8,23.7
				c7.8-3.5,15.9-7.3,21.8-10.1c30-14.1,40-18.5,50-18.5c10.1,0,20.1,4.5,50.1,18.5c5.9,2.8,13.8,6.5,21.7,10
				c-0.9-8.5-2-17.3-2.8-23.8c-4.1-32.8-5.3-43.7-2.2-53.2c3.2-9.7,10.4-17.7,33-41.9c4.5-4.7,10.5-11.2,16.3-17.6
				c-8.5-1.7-17.2-3.5-23.5-4.7c-32.4-6.3-43.2-8.5-51.3-14.4c-8.2-5.9-13.6-15.4-29.5-44.3c-3.2-5.7-7.5-13.4-11.7-21
				c-4.3,7.4-8.5,15-11.6,20.6c-16.1,29.2-21.7,38.7-29.8,44.6c-8.1,5.9-18.8,8.1-51.2,14.4C1383,865.8,1374.4,867.5,1365.9,869.2z
				 M1096.5,1071.7c-13.9,0-31.9-7.8-69.9-25.6c-8.7-4-19.8-9.3-26.6-12c-6.7,2.8-17.7,7.9-26.4,12c-38.1,17.8-56.3,25.6-70.1,25.6
				c-5.9,0-14.2-2.5-19-5.9c-18.2-13.3-15.5-35.9-8.7-90.5c1.2-9.5,2.7-21.8,3.3-28.9c-4.7-5.5-13.1-14.5-19.6-21.5
				c-37.6-40.2-53.1-56.9-46.2-78.4c7-21.6,30.9-26.2,83.6-36.4c9.4-1.8,21.4-4.1,28.5-5.8c3.8-6.2,9.8-17.1,14.5-25.5
				c26.6-48.1,37.6-68,60.2-68c22.7,0,34.5,21.4,60.5,68.3c4.6,8.3,10.5,19,14.3,25.2c7,1.7,19,4,28.4,5.8
				c52.6,10.2,76.7,14.8,83.6,36.5c7.1,21.4-9.6,39.3-46.3,78.4c-6.5,7-14.9,15.9-19.6,21.5c0.5,7.2,2,19.3,3.3,28.8
				c6.6,53.2,9.6,77.4-8.8,90.7C1110.6,1069.2,1102.3,1071.7,1096.5,1071.7z M883.9,869.2c5.8,6.4,11.8,12.8,16.2,17.6
				c22.6,24.2,29.9,32.3,33,41.7c3.1,9.7,2,20.6-2.1,53.5c-0.8,6.4-1.9,15.2-2.8,23.7c7.8-3.5,15.9-7.3,21.8-10.1
				c30-14.1,40-18.5,50-18.5c10.1,0,20.1,4.5,50.1,18.5c5.9,2.8,13.8,6.5,21.7,10c-0.9-8.5-2-17.3-2.8-23.8
				c-4.1-32.8-5.3-43.7-2.2-53.2c3.2-9.7,10.4-17.7,33-41.9c4.5-4.7,10.5-11.2,16.3-17.6c-8.5-1.7-17.2-3.5-23.5-4.7
				c-32.4-6.3-43.2-8.5-51.3-14.4c-8.2-5.9-13.6-15.4-29.5-44.3c-3.2-5.7-7.5-13.4-11.7-21c-4.3,7.4-8.5,15-11.6,20.6
				c-16.1,29.2-21.7,38.7-29.8,44.6c-8.1,5.9-18.8,8.1-51.2,14.4C901,865.8,892.4,867.5,883.9,869.2z M614.6,1071.7
				c-13.9,0-31.9-7.8-69.9-25.6c-8.7-4-19.8-9.3-26.6-12c-6.7,2.8-17.7,7.9-26.4,12c-38.1,17.8-56.3,25.6-70.1,25.6
				c-5.9,0-14.2-2.5-19-5.9c-18.2-13.3-15.5-35.9-8.7-90.5c1.2-9.5,2.7-21.8,3.3-28.9c-4.7-5.5-13.1-14.5-19.6-21.5
				c-37.6-40.2-53.1-56.9-46.2-78.4c7-21.6,30.9-26.2,83.6-36.4c9.4-1.8,21.4-4.1,28.5-5.8c3.8-6.2,9.8-17.1,14.5-25.5
				c26.6-48.1,37.6-68,60.2-68c22.7,0,34.5,21.4,60.5,68.3c4.6,8.3,10.5,19,14.3,25.2c7,1.7,19,4,28.4,5.8
				c52.6,10.2,76.7,14.8,83.6,36.5c7.1,21.4-9.6,39.3-46.3,78.4c-6.5,7-14.9,15.9-19.6,21.5c0.5,7.2,2,19.3,3.3,28.8
				c6.6,53.2,9.6,77.4-8.8,90.7C628.7,1069.2,620.4,1071.7,614.6,1071.7z M402,869.2c5.8,6.4,11.8,12.8,16.2,17.6
				c22.6,24.2,29.9,32.3,33,41.7c3.1,9.7,2,20.6-2.1,53.5c-0.8,6.4-1.9,15.2-2.8,23.7c7.8-3.5,15.9-7.3,21.8-10.1
				c30-14.1,40-18.5,50-18.5c10.1,0,20.1,4.5,50.1,18.5c5.9,2.8,13.8,6.5,21.7,10c-0.9-8.5-2-17.3-2.8-23.8
				c-4.1-32.8-5.3-43.7-2.2-53.2c3.2-9.7,10.4-17.7,33-41.9c4.5-4.7,10.5-11.2,16.3-17.6c-8.5-1.7-17.2-3.5-23.5-4.7
				c-32.4-6.3-43.2-8.5-51.3-14.4c-8.2-5.9-13.6-15.4-29.5-44.3c-3.2-5.7-7.5-13.4-11.7-21c-4.3,7.4-8.5,15-11.6,20.6
				c-16.1,29.2-21.7,38.7-29.8,44.6c-8.1,5.9-18.8,8.1-51.2,14.4C419.1,865.8,410.4,867.5,402,869.2z"/>
		</g>
		<g id="path5518_00000135672909152841312970000010863500615167871407_">
			<path class="st0" d="M369.7,1639.5c-3.5,0-7.2-0.7-10.6-2.1c-10.4-4.3-17.2-14.4-17.2-25.7v-157.6h-46.3
				c-97.1,0-176.1-79-176.1-176.1V536.6c0-97.1,79-176.1,176.1-176.1h1408.8c97.1,0,176.1,79,176.1,176.1v741.5
				c0,97.1-79,176.1-176.1,176.1H566.6l-177.2,177.2C384.1,1636.7,377,1639.5,369.7,1639.5z M295.6,416.1
				c-66.4,0-120.5,54.1-120.5,120.5v741.5c0,66.4,54.1,120.5,120.5,120.5h74.1c15.4,0,27.8,12.5,27.8,27.8v118.2l137.9-137.9
				c5.2-5.2,12.2-8.1,19.6-8.1h1149.3c66.5,0,120.5-54.1,120.5-120.5V536.6c0-66.4-54-120.5-120.5-120.5H295.6z"/>
		</g>
	</g>
</g>
<g>
	<path class="st0" d="M1646.1,1132.7l140.5-42.2c33.5-10,34.6-57.1,1.6-68.6l-355.5-124.4c-28.5-10-56,17.4-46,46l124.4,355.5
		c11.6,33,58.6,31.9,68.6-1.6l42.2-140.5C1625.4,1145.2,1634.5,1136.1,1646.1,1132.7z"/>
</g>
</svg>
