<svg id="Group_1" data-name="Group 1" xmlns="http://www.w3.org/2000/svg" width="58.236" height="53.052" viewBox="0 0 58.236 53.052">
  <path id="Path_1" data-name="Path 1" d="M7.118,24.58h7.765a1.945,1.945,0,0,0,1.941-1.941V20.051a1.945,1.945,0,0,0-1.941-1.941H7.118a1.945,1.945,0,0,0-1.941,1.941v2.588A1.945,1.945,0,0,0,7.118,24.58Zm-.647-1.941v-.647H7.765v1.294H7.118a.647.647,0,0,1-.647-.647Zm6.471.647H9.059V19.4h3.882Zm1.941,0h-.647V21.992H15.53v.647a.647.647,0,0,1-.647.647Zm.647-3.235V20.7H14.236V19.4h.647a.647.647,0,0,1,.647.647ZM7.118,19.4h.647V20.7H6.471v-.647a.647.647,0,0,1,.647-.647Z" fill="#fff"/>
  <path id="Path_2" data-name="Path 2" d="M26.529,19.4H36.882a.647.647,0,1,0,0-1.294H26.529a.647.647,0,1,0,0,1.294Z" fill="#fff"/>
  <path id="Path_3" data-name="Path 3" d="M26.529,21.992H36.882a.647.647,0,0,0,0-1.294H26.529a.647.647,0,1,0,0,1.294Z" fill="#fff"/>
  <path id="Path_4" data-name="Path 4" d="M5.824,29.757H16.177a.647.647,0,0,0,0-1.294H5.824a.647.647,0,1,0,0,1.294Z" fill="#fff"/>
  <path id="Path_5" data-name="Path 5" d="M5.824,32.346h15.53a.647.647,0,0,0,0-1.294H5.824a.647.647,0,1,0,0,1.294Z" fill="#fff"/>
  <path id="Path_6" data-name="Path 6" d="M5.824,34.934H11a.647.647,0,0,0,0-1.294H5.824a.647.647,0,1,0,0,1.294Z" fill="#fff"/>
  <path id="Path_7" data-name="Path 7" d="M57.488,31.792A1.885,1.885,0,0,0,56,31.378a7.344,7.344,0,0,1-7.249-3.134,1.924,1.924,0,0,0-1.567-.826h-.02a1.918,1.918,0,0,0-1.547.783,8.561,8.561,0,0,1-2.907,2.433V25.625l2.262-1.311A5.815,5.815,0,0,0,47.1,16.364L39.335,2.907A5.831,5.831,0,0,0,31.383.776L10.333,12.934H5.824A5.832,5.832,0,0,0,0,18.758v5.177a.647.647,0,0,0,1.294,0V18.758a4.535,4.535,0,0,1,4.529-4.53H36.883a4.535,4.535,0,0,1,4.529,4.53V31.147a7.442,7.442,0,0,1-3.223.231,1.866,1.866,0,0,0-1.489.412,2.014,2.014,0,0,0-.728,1.456,24.058,24.058,0,0,0,.127,3.7c.071.642.181,1.26.3,1.87H5.824a4.535,4.535,0,0,1-4.529-4.53V26.522a.647.647,0,0,0-1.294,0v7.765a5.832,5.832,0,0,0,5.824,5.824H36.693a27.5,27.5,0,0,0,5.444,10.634,6.477,6.477,0,0,0,9.913,0,29.838,29.838,0,0,0,2.28-3.175.647.647,0,0,0-1.1-.682,28.193,28.193,0,0,1-2.184,3.033,5.176,5.176,0,0,1-7.911,0A25.292,25.292,0,0,1,37.382,36.8a23.087,23.087,0,0,1-.116-3.5.7.7,0,0,1,.255-.513.569.569,0,0,1,.47-.134,8.761,8.761,0,0,0,4.133-.344,9.574,9.574,0,0,0,4.529-3.342.621.621,0,0,1,.508-.26.628.628,0,0,1,.528.281,8.625,8.625,0,0,0,8.5,3.665.579.579,0,0,1,.473.134.7.7,0,0,1,.253.51,23.055,23.055,0,0,1-.114,3.5,23.462,23.462,0,0,1-2.187,7.555.648.648,0,0,0,1.168.561,24.687,24.687,0,0,0,2.3-7.975,24.006,24.006,0,0,0,.124-3.7,1.993,1.993,0,0,0-.725-1.452ZM32.027,1.9a4.535,4.535,0,0,1,6.186,1.653l.2.342L33.972,6.458a.648.648,0,0,0,.647,1.122l4.433-2.562,1.941,3.357-7.91,4.559H25.348l6.871-3.968a.648.648,0,1,0-.647-1.122l-8.814,5.091H12.923Zm4.856,11.036H35.677L41.641,9.5l4.336,7.516a4.52,4.52,0,0,1-1.653,6.183l-1.618.938V18.758a5.831,5.831,0,0,0-5.824-5.824Z" fill="#fff"/>
  <path id="Path_8" data-name="Path 8" d="M43.688,40.35h7.472" fill="none" stroke="#fff" stroke-linecap="round" stroke-width="0.5"/>
  <path id="Path_9" data-name="Path 9" d="M47.423,44.086V36.614" fill="none" stroke="#fff" stroke-linecap="round" stroke-width="0.5"/>
</svg>
