<svg xmlns="http://www.w3.org/2000/svg" width="53.76" height="36.646" viewBox="0 0 53.76 36.646">
  <path id="Path_23" data-name="Path 23" d="M9.4,13v1.24h5.65V13Zm0,0v1.24h5.65V13Zm0,0v1.24h5.65V13Zm15.007,0v1.24h5.651V13Zm0,0v1.24h5.651V13ZM9.4,13v1.24h5.65V13Zm0,0v1.24h5.65V13Zm15.007,0v1.24h5.651V13ZM4,7.444v7.8a10.156,10.156,0,0,1,3.241-.929v-2.4a1.084,1.084,0,0,1,1.081-1.081H16.13a1.084,1.084,0,0,1,1.081,1.081v2.321h5.034V11.917a1.084,1.084,0,0,1,1.081-1.081h7.811a1.084,1.084,0,0,1,1.081,1.081v2.409a10.156,10.156,0,0,1,3.24.918v-7.8ZM35.9,18a8.339,8.339,0,0,0-4.765-1.6H8.319A8.334,8.334,0,0,0,3.554,18,8.553,8.553,0,0,0,0,24.926v.518H39.456v-.518A8.536,8.536,0,0,0,35.9,18Zm0,0a8.339,8.339,0,0,0-4.765-1.6H8.319A8.334,8.334,0,0,0,3.554,18,8.553,8.553,0,0,0,0,24.926v.518H39.456v-.518A8.536,8.536,0,0,0,35.9,18ZM.032,27.6v5.045H39.391V27.6ZM4,7.444v7.8a10.156,10.156,0,0,1,3.241-.929v-2.4a1.084,1.084,0,0,1,1.081-1.081H16.13a1.084,1.084,0,0,1,1.081,1.081v2.321h5.034V11.917a1.084,1.084,0,0,1,1.081-1.081h7.811a1.084,1.084,0,0,1,1.081,1.081v2.409a10.156,10.156,0,0,1,3.24.918v-7.8ZM24.406,13v1.24h5.651V13ZM9.4,13v1.24h5.65V13Zm0,0v1.24h5.65V13Zm15.007,0v1.24h5.651V13ZM4,7.444v7.8a10.156,10.156,0,0,1,3.241-.929v-2.4a1.084,1.084,0,0,1,1.081-1.081H16.13a1.084,1.084,0,0,1,1.081,1.081v2.321h5.034V11.917a1.084,1.084,0,0,1,1.081-1.081h7.811a1.084,1.084,0,0,1,1.081,1.081v2.409a10.156,10.156,0,0,1,3.24.918v-7.8ZM32.6,34.809v1.837h3.728V34.809ZM.032,27.6v5.045H39.391V27.6ZM35.9,18a8.339,8.339,0,0,0-4.765-1.6H8.319A8.334,8.334,0,0,0,3.554,18,8.553,8.553,0,0,0,0,24.926v.518H39.456v-.518A8.536,8.536,0,0,0,35.9,18Zm0,0a8.339,8.339,0,0,0-4.765-1.6H8.319A8.334,8.334,0,0,0,3.554,18,8.553,8.553,0,0,0,0,24.926v.518H39.456v-.518A8.536,8.536,0,0,0,35.9,18ZM.032,27.6v5.045H39.391V27.6Zm32.564,7.2v1.837h3.728V34.809ZM4,7.444v7.8a10.156,10.156,0,0,1,3.241-.929v-2.4a1.084,1.084,0,0,1,1.081-1.081H16.13a1.084,1.084,0,0,1,1.081,1.081v2.321h5.034V11.917a1.084,1.084,0,0,1,1.081-1.081h7.811a1.084,1.084,0,0,1,1.081,1.081v2.409a10.156,10.156,0,0,1,3.24.918v-7.8ZM24.406,13v1.24h5.651V13ZM9.4,13v1.24h5.65V13ZM3.133,34.809v1.837H6.861V34.809Zm0,0v1.837H6.861V34.809ZM9.4,13v1.24h5.65V13Zm15.007,0v1.24h5.651V13ZM4,7.444v7.8a10.156,10.156,0,0,1,3.241-.929v-2.4a1.084,1.084,0,0,1,1.081-1.081H16.13a1.084,1.084,0,0,1,1.081,1.081v2.321h5.034V11.917a1.084,1.084,0,0,1,1.081-1.081h7.811a1.084,1.084,0,0,1,1.081,1.081v2.409a10.156,10.156,0,0,1,3.24.918v-7.8ZM32.6,34.809v1.837h3.728V34.809ZM.032,27.6v5.045H39.391V27.6ZM35.9,18a8.339,8.339,0,0,0-4.765-1.6H8.319A8.334,8.334,0,0,0,3.554,18,8.553,8.553,0,0,0,0,24.926v.518H39.456v-.518A8.536,8.536,0,0,0,35.9,18ZM46.2,30.965v4.32H53.76v-4.32Zm0-10.805V28.8H53.76V20.16Zm0-5.4V18H53.76V14.758Zm2.972-9.475V12.6h2.16V5.283ZM51.653,0H48.3L47.44,3.121h5.077ZM3.133,34.809v1.837H6.861V34.809ZM9.4,13v1.24h5.65V13Zm15.007,0v1.24h5.651V13ZM4,7.444v7.8a10.156,10.156,0,0,1,3.241-.929v-2.4a1.084,1.084,0,0,1,1.081-1.081H16.13a1.084,1.084,0,0,1,1.081,1.081v2.321h5.034V11.917a1.084,1.084,0,0,1,1.081-1.081h7.811a1.084,1.084,0,0,1,1.081,1.081v2.409a10.156,10.156,0,0,1,3.24.918v-7.8ZM32.6,34.809v1.837h3.728V34.809ZM.032,27.6v5.045H39.391V27.6ZM35.9,18a8.339,8.339,0,0,0-4.765-1.6H8.319A8.334,8.334,0,0,0,3.554,18,8.553,8.553,0,0,0,0,24.926v.518H39.456v-.518A8.536,8.536,0,0,0,35.9,18Zm0,0a8.339,8.339,0,0,0-4.765-1.6H8.319A8.334,8.334,0,0,0,3.554,18,8.553,8.553,0,0,0,0,24.926v.518H39.456v-.518A8.536,8.536,0,0,0,35.9,18ZM.032,27.6v5.045H39.391V27.6Zm32.564,7.2v1.837h3.728V34.809ZM4,7.444v7.8a10.156,10.156,0,0,1,3.241-.929v-2.4a1.084,1.084,0,0,1,1.081-1.081H16.13a1.084,1.084,0,0,1,1.081,1.081v2.321h5.034V11.917a1.084,1.084,0,0,1,1.081-1.081h7.811a1.084,1.084,0,0,1,1.081,1.081v2.409a10.156,10.156,0,0,1,3.24.918v-7.8ZM24.406,13v1.24h5.651V13ZM9.4,13v1.24h5.65V13ZM3.133,34.809v1.837H6.861V34.809Zm0,0v1.837H6.861V34.809ZM9.4,13v1.24h5.65V13Zm15.007,0v1.24h5.651V13ZM4,7.444v7.8a10.156,10.156,0,0,1,3.241-.929v-2.4a1.084,1.084,0,0,1,1.081-1.081H16.13a1.084,1.084,0,0,1,1.081,1.081v2.321h5.034V11.917a1.084,1.084,0,0,1,1.081-1.081h7.811a1.084,1.084,0,0,1,1.081,1.081v2.409a10.156,10.156,0,0,1,3.24.918v-7.8ZM32.6,34.809v1.837h3.728V34.809ZM.032,27.6v5.045H39.391V27.6ZM35.9,18a8.339,8.339,0,0,0-4.765-1.6H8.319A8.334,8.334,0,0,0,3.554,18,8.553,8.553,0,0,0,0,24.926v.518H39.456v-.518A8.536,8.536,0,0,0,35.9,18Zm0,0a8.339,8.339,0,0,0-4.765-1.6H8.319A8.334,8.334,0,0,0,3.554,18,8.553,8.553,0,0,0,0,24.926v.518H39.456v-.518A8.536,8.536,0,0,0,35.9,18ZM.032,27.6v5.045H39.391V27.6Zm32.564,7.2v1.837h3.728V34.809ZM4,7.444v7.8a10.156,10.156,0,0,1,3.241-.929v-2.4a1.084,1.084,0,0,1,1.081-1.081H16.13a1.084,1.084,0,0,1,1.081,1.081v2.321h5.034V11.917a1.084,1.084,0,0,1,1.081-1.081h7.811a1.084,1.084,0,0,1,1.081,1.081v2.409a10.156,10.156,0,0,1,3.24.918v-7.8ZM24.406,13v1.24h5.651V13ZM9.4,13v1.24h5.65V13Zm0,0v1.24h5.65V13Zm15.007,0v1.24h5.651V13ZM4,7.444v7.8a10.156,10.156,0,0,1,3.241-.929v-2.4a1.084,1.084,0,0,1,1.081-1.081H16.13a1.084,1.084,0,0,1,1.081,1.081v2.321h5.034V11.917a1.084,1.084,0,0,1,1.081-1.081h7.811a1.084,1.084,0,0,1,1.081,1.081v2.409a10.156,10.156,0,0,1,3.24.918v-7.8ZM35.9,18a8.339,8.339,0,0,0-4.765-1.6H8.319A8.334,8.334,0,0,0,3.554,18,8.553,8.553,0,0,0,0,24.926v.518H39.456v-.518A8.536,8.536,0,0,0,35.9,18ZM4,7.444v7.8a10.156,10.156,0,0,1,3.241-.929v-2.4a1.084,1.084,0,0,1,1.081-1.081H16.13a1.084,1.084,0,0,1,1.081,1.081v2.321h5.034V11.917a1.084,1.084,0,0,1,1.081-1.081h7.811a1.084,1.084,0,0,1,1.081,1.081v2.409a10.156,10.156,0,0,1,3.24.918v-7.8ZM24.406,13v1.24h5.651V13ZM9.4,13v1.24h5.65V13Zm0,0v1.24h5.65V13Zm15.007,0v1.24h5.651V13ZM9.4,13v1.24h5.65V13Zm0,0v1.24h5.65V13Zm0,0v1.24h5.65V13Z" fill="#b08e54"/>
</svg>
