<svg xmlns="http://www.w3.org/2000/svg" width="61.686" height="70.064" viewBox="0 0 61.686 70.064">
  <g id="Group_177" data-name="Group 177" transform="translate(-93 -5764)">
    <path id="Path_167" data-name="Path 167" d="M35.409,46.146a1.22,1.22,0,0,1,.231,1.709,3.936,3.936,0,0,0-.475.8,1.238,1.238,0,0,1-1.61.625,1.22,1.22,0,0,1-.624-1.608,6.453,6.453,0,0,1,.766-1.3,1.22,1.22,0,0,1,1.711-.229Zm-7.1-18.112a1.22,1.22,0,0,0,.882-.378,3.61,3.61,0,0,1,.705-.572,1.22,1.22,0,1,0-1.283-2.075,6.007,6.007,0,0,0-1.189.963,1.221,1.221,0,0,0,.884,2.063Zm4.483-1.484h1.22a1.22,1.22,0,1,0,0-2.441h-1.22a1.22,1.22,0,0,0,0,2.441ZM27.132,32.56a1.232,1.232,0,0,0,1.181-1.527,3.587,3.587,0,0,1-.114-.9,1.22,1.22,0,0,0-2.441,0,6.037,6.037,0,0,0,.193,1.513,1.244,1.244,0,0,0,1.178.914Zm4.4,2.525a1.221,1.221,0,0,0-.807-1.526,3.657,3.657,0,0,1-.83-.377,1.22,1.22,0,1,0-1.281,2.075,3.755,3.755,0,0,0,1.751.687,1.223,1.223,0,0,0,1.167-.859Zm1.259,29.147h-1.22a1.22,1.22,0,0,0,0,2.441h1.22a1.22,1.22,0,1,0,0-2.441Zm-4.89,0h-1.22a1.22,1.22,0,0,0,0,2.441H27.9a1.22,1.22,0,1,0,0-2.441Zm20.785-28.07h1.22a1.22,1.22,0,0,0,0-2.441h-1.22a1.22,1.22,0,0,0,0,2.441Zm-1.2,10.157H48.7a1.22,1.22,0,0,0,0-2.441H47.484a1.22,1.22,0,0,0,0,2.441ZM32.794,34.937a1.221,1.221,0,0,0,1.22,1.22h1.22a1.22,1.22,0,0,0,0-2.441h-1.22a1.22,1.22,0,0,0-1.22,1.22Zm25.482,2.524a1.261,1.261,0,0,0,1.722.1,1.221,1.221,0,0,0,.1-1.723,6.306,6.306,0,0,0-1.13-1,1.221,1.221,0,0,0-1.39,2.008A7.748,7.748,0,0,1,58.276,37.461ZM37.683,34.937a1.221,1.221,0,0,0,1.221,1.22h1.22a1.22,1.22,0,0,0,0-2.441H38.9a1.22,1.22,0,0,0-1.221,1.22Zm6.111,1.22h1.22a1.22,1.22,0,1,0,0-2.441h-1.22a1.22,1.22,0,0,0,0,2.441Zm8.161,21.024a1.22,1.22,0,0,0-2.087,1.266,3.76,3.76,0,0,1,.377.838,1.255,1.255,0,0,0,1.527.806,1.221,1.221,0,0,0,.805-1.526A6.229,6.229,0,0,0,51.954,57.182ZM51.691,61.4a1.22,1.22,0,0,0-1.618.6,3.8,3.8,0,0,1-.488.788,1.22,1.22,0,0,0,.2,1.715,1.234,1.234,0,0,0,1.715-.2,6.288,6.288,0,0,0,.791-1.289,1.221,1.221,0,0,0-.6-1.618ZM35.382,52.238a3.856,3.856,0,0,1-.376-.847,1.22,1.22,0,0,0-2.333.715,6.307,6.307,0,0,0,.61,1.382,1.234,1.234,0,0,0,1.673.425,1.22,1.22,0,0,0,.426-1.674Zm18.211-8.365H52.373a1.22,1.22,0,0,0,0,2.441h1.221a1.22,1.22,0,0,0,0-2.441Zm4-.7a3.947,3.947,0,0,1-.819.438,1.22,1.22,0,0,0-.7,1.579,1.234,1.234,0,0,0,1.579.694,6.3,6.3,0,0,0,1.333-.713,1.22,1.22,0,1,0-1.4-2Zm-2.8-9.462h-1.22a1.22,1.22,0,0,0,0,2.441H54.8a1.22,1.22,0,0,0,0-2.441Zm5.666,5.073a1.221,1.221,0,0,0-1.22,1.221,3.86,3.86,0,0,1-.109.914,1.245,1.245,0,0,0,1.188,1.508,1.22,1.22,0,0,0,1.185-.932,6.337,6.337,0,0,0,.178-1.5,1.22,1.22,0,0,0-1.223-1.209ZM47.249,64.174a6.189,6.189,0,0,1-1.008.056,1.22,1.22,0,0,0,0,2.441,7.27,7.27,0,0,0,1.428-.092,1.221,1.221,0,1,0-.42-2.405Zm1.194-9.739a6.242,6.242,0,0,0-1.494-.266,1.222,1.222,0,1,0-.132,2.441c.428.023.842.217,1.267.217a1.22,1.22,0,0,0,.359-2.387ZM38.923,43.873a7.154,7.154,0,0,0-1.465.132A1.22,1.22,0,0,0,37.7,46.42c.405,0,.807-.107,1.22-.107a1.22,1.22,0,1,0,0-2.44Zm3.649,20.358h-1.22a1.22,1.22,0,0,0,0,2.441h1.22a1.22,1.22,0,0,0,0-2.441ZM38.423,54.147a3.941,3.941,0,0,1-.91-.187,1.222,1.222,0,1,0-.77,2.319,5.162,5.162,0,0,0,1.58.306,1.221,1.221,0,1,0,.1-2.441Zm-.747,10.086h-1.22a1.22,1.22,0,0,0,0,2.441h1.22a1.22,1.22,0,1,0,0-2.441Zm5.532-10.071h-1.22a1.22,1.22,0,0,0,0,2.441h1.22a1.22,1.22,0,0,0,0-2.441Zm.6-10.287h-1.22a1.22,1.22,0,0,0,0,2.441h1.22a1.22,1.22,0,0,0,0-2.441ZM12.484,51.642a6.231,6.231,0,1,1,4.4-1.825A6.224,6.224,0,0,1,12.484,51.642Zm0-2.441a3.783,3.783,0,1,0-2.675-1.108A3.783,3.783,0,0,0,12.484,49.2ZM24.23,65.451a1.22,1.22,0,0,1-1.17,1.211c-1.551,2.241-6.085,3.4-10.576,3.4-5.535,0-11.136-1.764-11.136-5.137,0-1.925,1.917-3.506,5.2-4.394C3.315,56.6,0,51.149,0,45.351a12.484,12.484,0,1,1,24.967,0c0,5.794-3.315,11.24-6.546,15.18,2.958.8,4.793,2.175,5.126,3.843a1.21,1.21,0,0,1,.683,1.081ZM11.637,62.489a1.22,1.22,0,0,0,1.692,0c2.766-2.717,9.2-9.827,9.2-17.137A10.043,10.043,0,0,0,12.484,35.31h-.071A10.07,10.07,0,0,0,2.444,45.352C2.44,52.663,8.874,59.769,11.637,62.489Zm9.542,2.441c0-.592-1.464-1.709-4.575-2.319-.552.594-1.08,1.136-1.565,1.612a3.661,3.661,0,0,1-5.114,0c-.488-.476-1.013-1.017-1.563-1.61-3.1.6-4.575,1.716-4.575,2.312,0,.949,3.3,2.7,8.7,2.7S21.179,65.877,21.179,64.93Zm25.05-50.084a5.027,5.027,0,1,1,3.549-1.473A5.021,5.021,0,0,1,46.229,14.847Zm0-2.441a2.584,2.584,0,1,0-1.82-.759A2.581,2.581,0,0,0,46.229,12.406Zm8.753,12.24c0,2.753-4.4,4.195-8.753,4.195-3.2,0-6.422-.782-7.9-2.291H37.8a1.22,1.22,0,0,1-1.22-1.22,1.2,1.2,0,0,1,.954-1.167c.265-1.292,1.586-2.353,3.694-3.011-2.266-2.85-4.619-6.781-4.767-10.963a9.934,9.934,0,0,1,2.7-7.088A9.648,9.648,0,0,1,45.951,0,9.777,9.777,0,0,1,56.006,9.767c0,4.335-2.424,8.421-4.773,11.379C53.6,21.89,54.982,23.139,54.982,24.646Zm-9.628-2.5a1.22,1.22,0,0,0,.882.373,1.178,1.178,0,0,0,.854-.354c2.42-2.466,6.479-7.352,6.479-12.388a7.337,7.337,0,0,0-7.335-7.336h-.211a7.218,7.218,0,0,0-5.077,2.331A7.476,7.476,0,0,0,38.9,10.1c.177,4.922,4.123,9.656,6.46,12.039Zm7.187,2.5c-.033-.217-.871-.976-3.082-1.435-.218.234-.431.458-.631.662a3.6,3.6,0,0,1-2.591,1.086,3.648,3.648,0,0,1-2.625-1.1c-.194-.2-.4-.415-.61-.642-2.2.454-3.051,1.213-3.083,1.439.077.5,2.385,1.751,6.312,1.751S52.465,25.152,52.542,24.643Z" transform="translate(93 5764)" fill="#a1834f"/>
  </g>
</svg>
