<svg xmlns="http://www.w3.org/2000/svg" width="18.71" height="21.65" viewBox="0 0 18.71 21.65">
  <path id="Path_21" data-name="Path 21" d="M9.615.028,9.7.052,18.061,3a.969.969,0,0,1,.65.85v8.8H18.7c-.177,3.166-2.8,5.93-7.725,8.339l-.472.224c-.236.118-.484.224-.744.343a.955.955,0,0,1-.8,0c-.248-.106-.5-.225-.744-.343l-.472-.224C2.823,18.573.2,15.821.012,12.656H0V3.938a.965.965,0,0,1,.591-.9l.071-.024L9.024.064A1.017,1.017,0,0,1,9.615.028Zm-.248,2L1.984,4.635V12.3c0,2.386,2.15,4.725,6.6,6.922l.461.224.307.142.307-.142.461-.224L10.572,19c4.087-2.091,6.095-4.311,6.166-6.568v-7.8ZM8.812,13.99a.564.564,0,0,1-.26.142l-.059.012H8.434A.528.528,0,0,1,8.115,14L5.327,11.214a.5.5,0,0,1,0-.7l.7-.7a.5.5,0,0,1,.7,0l1.736,1.736L12.285,7.73a.5.5,0,0,1,.7,0l.7.7a.5.5,0,0,1,0,.7Z" fill="#a1834f"/>
</svg>
