<?xml version="1.0" encoding="UTF-8"?>
<svg id="Layer_2" data-name="Layer 2" xmlns="http://www.w3.org/2000/svg" viewBox="0 0 1436.21 1703.64">
  <defs>
    <style>
      .cls-1, .cls-2 {
        stroke-width: 0px;
      }

      .cls-1, .cls-3 {
        fill: #dfae64;
      }

      .cls-2 {
        fill: #fff;
      }

      .cls-3 {
        stroke: #fff;
        stroke-miterlimit: 10;
        stroke-width: 20px;
      }
    </style>
  </defs>
  <g id="Layer_1-2" data-name="Layer 1">
    <g>
      <g>
        <path class="cls-1" d="m734.17,9.94l51.95,104.2c2.61,5.24,7.62,8.88,13.41,9.74l115.15,17.21c14.65,2.19,20.49,20.18,9.93,30.56l-83.05,81.6c-4.18,4.1-6.09,9.99-5.12,15.77l19.22,114.83c2.44,14.61-12.86,25.72-25.99,18.88l-103.27-53.77c-5.19-2.7-11.38-2.7-16.58,0l-103.27,53.77c-13.14,6.84-28.44-4.28-25.99-18.88l19.22-114.83c.97-5.78-.95-11.66-5.12-15.77l-83.05-81.6c-10.56-10.38-4.72-28.37,9.93-30.56l115.15-17.21c5.79-.87,10.8-4.5,13.41-9.74l51.95-104.2c6.61-13.25,25.52-13.25,32.13,0Z"/>
        <path class="cls-1" d="m313.24,272.37l31.15,62.47c2.61,5.24,7.62,8.88,13.41,9.74l69.04,10.32c14.65,2.19,20.49,20.18,9.93,30.56l-49.79,48.93c-4.18,4.1-6.09,9.99-5.12,15.77l11.52,68.85c2.44,14.61-12.86,25.72-25.99,18.88l-61.92-32.24c-5.19-2.7-11.38-2.7-16.58,0l-61.92,32.24c-13.14,6.84-28.44-4.28-25.99-18.88l11.52-68.85c.97-5.78-.95-11.66-5.12-15.77l-49.79-48.93c-10.56-10.38-4.72-28.37,9.93-30.56l69.04-10.32c5.79-.87,10.8-4.5,13.41-9.74l31.15-62.47c6.61-13.25,25.52-13.25,32.13,0Z"/>
        <path class="cls-1" d="m123.88,612.33l19.59,39.3c2.61,5.24,7.62,8.88,13.41,9.74l43.43,6.49c14.65,2.19,20.49,20.18,9.93,30.56l-31.32,30.78c-4.18,4.1-6.09,9.99-5.12,15.77l7.25,43.31c2.44,14.61-12.86,25.72-25.99,18.88l-38.95-20.28c-5.19-2.7-11.38-2.7-16.58,0l-38.95,20.28c-13.14,6.84-28.44-4.28-25.99-18.88l7.25-43.31c.97-5.78-.95-11.66-5.12-15.77l-31.32-30.78c-10.56-10.38-4.72-28.37,9.93-30.56l43.43-6.49c5.79-.87,10.8-4.5,13.41-9.74l19.59-39.3c6.61-13.25,25.52-13.25,32.13,0Z"/>
        <path class="cls-1" d="m1122.97,272.37l-31.15,62.47c-2.61,5.24-7.62,8.88-13.41,9.74l-69.04,10.32c-14.65,2.19-20.49,20.18-9.93,30.56l49.79,48.93c4.18,4.1,6.09,9.99,5.12,15.77l-11.52,68.85c-2.44,14.61,12.86,25.72,25.99,18.88l61.92-32.24c5.19-2.7,11.38-2.7,16.58,0l61.92,32.24c13.14,6.84,28.44-4.28,25.99-18.88l-11.52-68.85c-.97-5.78.95-11.66,5.12-15.77l49.79-48.93c10.56-10.38,4.72-28.37-9.93-30.56l-69.04-10.32c-5.79-.87-10.8-4.5-13.41-9.74l-31.15-62.47c-6.61-13.25-25.52-13.25-32.13,0Z"/>
        <path class="cls-1" d="m1312.33,612.33l-19.59,39.3c-2.61,5.24-7.62,8.88-13.41,9.74l-43.43,6.49c-14.65,2.19-20.49,20.18-9.93,30.56l31.32,30.78c4.18,4.1,6.09,9.99,5.12,15.77l-7.25,43.31c-2.44,14.61,12.86,25.72,25.99,18.88l38.95-20.28c5.19-2.7,11.38-2.7,16.58,0l38.95,20.28c13.14,6.84,28.44-4.28,25.99-18.88l-7.25-43.31c-.97-5.78.95-11.66,5.12-15.77l31.32-30.78c10.56-10.38,4.72-28.37-9.93-30.56l-43.43-6.49c-5.79-.87-10.8-4.5-13.41-9.74l-19.59-39.3c-6.61-13.25-25.52-13.25-32.13,0Z"/>
      </g>
      <g>
        <polygon class="cls-1" points="932.47 1184.99 1095.34 1586.19 912.12 1547.83 912.76 1547.57 808.14 1702.79 645.26 1301.59 932.47 1184.99"/>
        <polygon class="cls-1" points="794.92 1304.78 626.4 1703.64 523.97 1546.96 524.61 1547.23 340.86 1583.01 509.38 1184.14 794.92 1304.78"/>
        <path class="cls-3" d="m1157.98,908.63c0,22.72-27.73,43-31.15,64.76-3.51,22.34,16.57,50.16,9.73,71.21-6.95,21.42-39.61,32.12-49.71,51.91-10.21,19.99.25,52.69-12.86,70.7-13.17,18.1-47.53,18.21-63.32,34-15.79,15.79-15.9,50.15-34,63.32-18.01,13.11-50.71,2.66-70.7,12.86-19.78,10.1-30.49,42.75-51.9,49.71-21.05,6.83-48.87-13.25-71.2-9.74-21.76,3.42-42.04,31.15-64.76,31.15s-43-27.73-64.76-31.15c-22.34-3.51-50.16,16.57-71.21,9.73-21.42-6.95-32.12-39.61-51.91-49.71-19.99-10.21-52.69.25-70.7-12.86-18.1-13.17-18.21-47.53-34-63.32-15.79-15.79-50.15-15.9-63.32-34s-2.66-50.71-12.86-70.7c-10.1-19.78-42.75-30.49-49.71-51.9-6.83-21.05,13.25-48.87,9.74-71.2-3.42-21.76-31.15-42.04-31.15-64.76s27.73-43,31.15-64.76-16.57-50.16-9.73-71.21c6.95-21.42,39.61-32.12,49.71-51.91,10.21-19.99-.25-52.69,12.86-70.7,13.17-18.1,47.53-18.21,63.32-34,15.79-15.79,15.9-50.15,34-63.32s50.71-2.66,70.7-12.86,30.49-42.75,51.9-49.71c21.05-6.83,48.87,13.25,71.2,9.74,21.76-3.42,42.04-31.15,64.76-31.15s43,27.73,64.76,31.15c22.34,3.51,50.16-16.57,71.21-9.73,21.42,6.95,32.12,39.61,51.91,49.71,19.99,10.21,52.69-.25,70.7,12.86,18.1,13.17,18.21,47.53,34,63.32,15.79,15.79,50.15,15.9,63.32,34,13.11,18.01,2.66,50.71,12.86,70.7,10.1,19.78,42.75,30.49,49.71,51.9s-13.25,48.87-9.74,71.2c3.42,21.76,31.15,42.04,31.15,64.76Z"/>
        <circle class="cls-2" cx="718.1" cy="908.63" r="328.53"/>
        <circle class="cls-1" cx="718.1" cy="908.63" r="297.6"/>
      </g>
    </g>
  </g>
</svg>