<svg id="Group_178" data-name="Group 178" xmlns="http://www.w3.org/2000/svg" width="275.444" height="199" viewBox="0 0 275.444 199">
  <path id="Path_182" data-name="Path 182" d="M97.532,74.421H53.3a7,7,0,0,1-6.967-7.142c.2-20.812,13.758-35.536,34.452-48.942a3.22,3.22,0,0,0,1.493-2.605V3.262A3.542,3.542,0,0,0,77.247.335L41.214,14.971C17.563,24.63.966,45.384,0,68.918V172.275A26.637,26.637,0,0,0,26.344,199H97.532a26.636,26.636,0,0,0,26.637-26.637V101.058A26.636,26.636,0,0,0,97.532,74.421Z" fill="rgba(255,255,255,0.05)"/>
  <path id="Path_183" data-name="Path 183" d="M248.807,74.421H204.578a6.969,6.969,0,0,1-6.938-7.142c.176-20.812,13.729-35.536,34.424-48.942a3.128,3.128,0,0,0,1.492-2.605V3.262A3.541,3.541,0,0,0,228.551.335L192.489,14.971c-23.8,9.66-40.278,30.413-41.3,53.947V172.275a26.638,26.638,0,0,0,26.637,26.637h70.983a26.638,26.638,0,0,0,26.637-26.637V101.058a26.637,26.637,0,0,0-26.637-26.637Z" fill="rgba(255,255,255,0.05)"/>
</svg>
