<svg xmlns="http://www.w3.org/2000/svg" width="13.705" height="19.411" viewBox="0 0 13.705 19.411">
  <g id="Group_2" data-name="Group 2" transform="translate(-1231.717 368)">
    <path id="Path_11" data-name="Path 11" d="M9.437,15.483a4.712,4.712,0,0,0-.892.76C7.382,17.3,6.231,18.365,5.072,19.424a.375.375,0,0,1-.355.186L10.1.807l2.32,4.362c.8,1.538,1.584,3.084,2.409,4.608a.572.572,0,0,1-.138.852C12.945,12.2,11.226,13.8,9.5,15.39a.084.084,0,0,0-.068.066.084.084,0,0,0,0,.033Z" transform="translate(1227 -368.807)" fill="#fff"/>
    <path id="Path_12" data-name="Path 12" d="M9.5,15.391c1.727-1.59,3.446-3.19,5.19-4.762a.572.572,0,0,0,.138-.852C14,8.253,13.218,6.707,12.418,5.169L13.409,1.8l.1-.33a.244.244,0,0,1,.183.212q2.325,4.434,4.649,8.869a.342.342,0,0,1-.066.507q-4.963,4.532-9.912,9.079a.285.285,0,0,1-.216.078c.11-.392.219-.784.331-1.175.308-1.078.62-2.155.924-3.234a.368.368,0,0,0,.037-.325l-.006.006C9.52,15.5,9.493,15.436,9.5,15.391Z" transform="translate(1227 -368.807)" fill="#a5a5a5"/>
  </g>
</svg>
